<?xml version="1.0" encoding="utf-8" standalone="no"?>
<!DOCTYPE svg PUBLIC "-//W3C//DTD SVG 1.1//EN"
  "http://www.w3.org/Graphics/SVG/1.1/DTD/svg11.dtd">
<svg xmlns:xlink="http://www.w3.org/1999/xlink" width="2160pt" height="1350pt" viewBox="0 0 2160 1350" xmlns="http://www.w3.org/2000/svg" version="1.1">
 <metadata>
  <rdf:RDF xmlns:dc="http://purl.org/dc/elements/1.1/" xmlns:cc="http://creativecommons.org/ns#" xmlns:rdf="http://www.w3.org/1999/02/22-rdf-syntax-ns#">
   <cc:Work>
    <dc:type rdf:resource="http://purl.org/dc/dcmitype/StillImage"/>
    <dc:date>2023-03-02T20:25:45.888893</dc:date>
    <dc:format>image/svg+xml</dc:format>
    <dc:creator>
     <cc:Agent>
      <dc:title>Matplotlib v3.5.2, https://matplotlib.org/</dc:title>
     </cc:Agent>
    </dc:creator>
   </cc:Work>
  </rdf:RDF>
 </metadata>
 <defs>
  <style type="text/css">*{stroke-linejoin: round; stroke-linecap: butt}</style>
 </defs>
 <g id="figure_1">
  <g id="patch_1">
   <path d="M 0 1350 
L 2160 1350 
L 2160 0 
L 0 0 
z
" style="fill: #ffffff"/>
  </g>
  <g id="axes_1">
   <g id="patch_2">
    <path d="M 269.956406 1202.380938 
L 2063.888906 1202.380938 
L 2063.888906 77.76 
L 269.956406 77.76 
z
" style="fill: #ffffff"/>
   </g>
   <g id="matplotlib.axis_1">
    <g id="xtick_1">
     <g id="line2d_1">
      <path d="M 269.956406 1202.380938 
L 269.956406 77.76 
" clip-path="url(#p045c864c50)" style="fill: none; stroke: #cccccc; stroke-linecap: round"/>
     </g>
    </g>
    <g id="xtick_2">
     <g id="line2d_2">
      <path d="M 568.808694 1202.380938 
L 568.808694 77.76 
" clip-path="url(#p045c864c50)" style="fill: none; stroke: #cccccc; stroke-linecap: round"/>
     </g>
     <g id="text_1">
      <!-- 0 -->
      <g style="fill: #262626" transform="translate(550.4576 1259.1225)scale(0.66 -0.66)">
       <defs>
        <path id="ArialMT-30" d="M 266 2259 
Q 266 3072 433 3567 
Q 600 4063 929 4331 
Q 1259 4600 1759 4600 
Q 2128 4600 2406 4451 
Q 2684 4303 2865 4023 
Q 3047 3744 3150 3342 
Q 3253 2941 3253 2259 
Q 3253 1453 3087 958 
Q 2922 463 2592 192 
Q 2263 -78 1759 -78 
Q 1097 -78 719 397 
Q 266 969 266 2259 
z
M 844 2259 
Q 844 1131 1108 757 
Q 1372 384 1759 384 
Q 2147 384 2411 759 
Q 2675 1134 2675 2259 
Q 2675 3391 2411 3762 
Q 2147 4134 1753 4134 
Q 1366 4134 1134 3806 
Q 844 3388 844 2259 
z
" transform="scale(0.015625)"/>
       </defs>
       <use xlink:href="#ArialMT-30"/>
      </g>
     </g>
    </g>
    <g id="xtick_3">
     <g id="line2d_3">
      <path d="M 867.660982 1202.380938 
L 867.660982 77.76 
" clip-path="url(#p045c864c50)" style="fill: none; stroke: #cccccc; stroke-linecap: round"/>
     </g>
     <g id="text_2">
      <!-- 1 -->
      <g style="fill: #262626" transform="translate(849.309888 1259.1225)scale(0.66 -0.66)">
       <defs>
        <path id="ArialMT-31" d="M 2384 0 
L 1822 0 
L 1822 3584 
Q 1619 3391 1289 3197 
Q 959 3003 697 2906 
L 697 3450 
Q 1169 3672 1522 3987 
Q 1875 4303 2022 4600 
L 2384 4600 
L 2384 0 
z
" transform="scale(0.015625)"/>
       </defs>
       <use xlink:href="#ArialMT-31"/>
      </g>
     </g>
    </g>
    <g id="xtick_4">
     <g id="line2d_4">
      <path d="M 1166.51327 1202.380938 
L 1166.51327 77.76 
" clip-path="url(#p045c864c50)" style="fill: none; stroke: #cccccc; stroke-linecap: round"/>
     </g>
     <g id="text_3">
      <!-- 2 -->
      <g style="fill: #262626" transform="translate(1148.162176 1259.1225)scale(0.66 -0.66)">
       <defs>
        <path id="ArialMT-32" d="M 3222 541 
L 3222 0 
L 194 0 
Q 188 203 259 391 
Q 375 700 629 1000 
Q 884 1300 1366 1694 
Q 2113 2306 2375 2664 
Q 2638 3022 2638 3341 
Q 2638 3675 2398 3904 
Q 2159 4134 1775 4134 
Q 1369 4134 1125 3890 
Q 881 3647 878 3216 
L 300 3275 
Q 359 3922 746 4261 
Q 1134 4600 1788 4600 
Q 2447 4600 2831 4234 
Q 3216 3869 3216 3328 
Q 3216 3053 3103 2787 
Q 2991 2522 2730 2228 
Q 2469 1934 1863 1422 
Q 1356 997 1212 845 
Q 1069 694 975 541 
L 3222 541 
z
" transform="scale(0.015625)"/>
       </defs>
       <use xlink:href="#ArialMT-32"/>
      </g>
     </g>
    </g>
    <g id="xtick_5">
     <g id="line2d_5">
      <path d="M 1466.184331 1202.380938 
L 1466.184331 77.76 
" clip-path="url(#p045c864c50)" style="fill: none; stroke: #cccccc; stroke-linecap: round"/>
     </g>
     <g id="text_4">
      <!-- 3 -->
      <g style="fill: #262626" transform="translate(1447.833237 1259.1225)scale(0.66 -0.66)">
       <defs>
        <path id="ArialMT-33" d="M 269 1209 
L 831 1284 
Q 928 806 1161 595 
Q 1394 384 1728 384 
Q 2125 384 2398 659 
Q 2672 934 2672 1341 
Q 2672 1728 2419 1979 
Q 2166 2231 1775 2231 
Q 1616 2231 1378 2169 
L 1441 2663 
Q 1497 2656 1531 2656 
Q 1891 2656 2178 2843 
Q 2466 3031 2466 3422 
Q 2466 3731 2256 3934 
Q 2047 4138 1716 4138 
Q 1388 4138 1169 3931 
Q 950 3725 888 3313 
L 325 3413 
Q 428 3978 793 4289 
Q 1159 4600 1703 4600 
Q 2078 4600 2393 4439 
Q 2709 4278 2876 4000 
Q 3044 3722 3044 3409 
Q 3044 3113 2884 2869 
Q 2725 2625 2413 2481 
Q 2819 2388 3044 2092 
Q 3269 1797 3269 1353 
Q 3269 753 2831 336 
Q 2394 -81 1725 -81 
Q 1122 -81 723 278 
Q 325 638 269 1209 
z
" transform="scale(0.015625)"/>
       </defs>
       <use xlink:href="#ArialMT-33"/>
      </g>
     </g>
    </g>
    <g id="xtick_6">
     <g id="line2d_6">
      <path d="M 1765.036618 1202.380938 
L 1765.036618 77.76 
" clip-path="url(#p045c864c50)" style="fill: none; stroke: #cccccc; stroke-linecap: round"/>
     </g>
     <g id="text_5">
      <!-- 4 -->
      <g style="fill: #262626" transform="translate(1746.685525 1259.1225)scale(0.66 -0.66)">
       <defs>
        <path id="ArialMT-34" d="M 2069 0 
L 2069 1097 
L 81 1097 
L 81 1613 
L 2172 4581 
L 2631 4581 
L 2631 1613 
L 3250 1613 
L 3250 1097 
L 2631 1097 
L 2631 0 
L 2069 0 
z
M 2069 1613 
L 2069 3678 
L 634 1613 
L 2069 1613 
z
" transform="scale(0.015625)"/>
       </defs>
       <use xlink:href="#ArialMT-34"/>
      </g>
     </g>
    </g>
    <g id="xtick_7">
     <g id="line2d_7">
      <path d="M 2063.888906 1202.380938 
L 2063.888906 77.76 
" clip-path="url(#p045c864c50)" style="fill: none; stroke: #cccccc; stroke-linecap: round"/>
     </g>
     <g id="text_6">
      <!-- 5 -->
      <g style="fill: #262626" transform="translate(2045.537813 1259.1225)scale(0.66 -0.66)">
       <defs>
        <path id="ArialMT-35" d="M 266 1200 
L 856 1250 
Q 922 819 1161 601 
Q 1400 384 1738 384 
Q 2144 384 2425 690 
Q 2706 997 2706 1503 
Q 2706 1984 2436 2262 
Q 2166 2541 1728 2541 
Q 1456 2541 1237 2417 
Q 1019 2294 894 2097 
L 366 2166 
L 809 4519 
L 3088 4519 
L 3088 3981 
L 1259 3981 
L 1013 2750 
Q 1425 3038 1878 3038 
Q 2478 3038 2890 2622 
Q 3303 2206 3303 1553 
Q 3303 931 2941 478 
Q 2500 -78 1738 -78 
Q 1113 -78 717 272 
Q 322 622 266 1200 
z
" transform="scale(0.015625)"/>
       </defs>
       <use xlink:href="#ArialMT-35"/>
      </g>
     </g>
    </g>
   </g>
   <g id="matplotlib.axis_2">
    <g id="ytick_1">
     <g id="line2d_8">
      <path d="M 269.956406 1202.380938 
L 2063.888906 1202.380938 
" clip-path="url(#p045c864c50)" style="fill: none; stroke: #cccccc; stroke-linecap: round"/>
     </g>
     <g id="line2d_9">
      <defs>
       <path id="m7177f0d8d4" d="M 0 0 
L -6 0 
" style="stroke: #262626; stroke-width: 1.25"/>
      </defs>
      <g>
       <use xlink:href="#m7177f0d8d4" x="269.956406" y="1202.380938" style="fill: #262626; stroke: #262626; stroke-width: 1.25"/>
      </g>
     </g>
     <g id="text_7">
      <!-- 1 -->
      <g style="fill: #262626" transform="translate(223.754219 1226.001719)scale(0.66 -0.66)">
       <use xlink:href="#ArialMT-31"/>
      </g>
     </g>
    </g>
    <g id="ytick_2">
     <g id="line2d_10">
      <path d="M 269.956406 785.695707 
L 2063.888906 785.695707 
" clip-path="url(#p045c864c50)" style="fill: none; stroke: #cccccc; stroke-linecap: round"/>
     </g>
     <g id="line2d_11">
      <g>
       <use xlink:href="#m7177f0d8d4" x="269.956406" y="785.695707" style="fill: #262626; stroke: #262626; stroke-width: 1.25"/>
      </g>
     </g>
     <g id="text_8">
      <!-- 10 -->
      <g style="fill: #262626" transform="translate(187.052031 809.316489)scale(0.66 -0.66)">
       <use xlink:href="#ArialMT-31"/>
       <use xlink:href="#ArialMT-30" x="55.615234"/>
      </g>
     </g>
    </g>
    <g id="ytick_3">
     <g id="line2d_12">
      <path d="M 269.956406 369.010477 
L 2063.888906 369.010477 
" clip-path="url(#p045c864c50)" style="fill: none; stroke: #cccccc; stroke-linecap: round"/>
     </g>
     <g id="line2d_13">
      <g>
       <use xlink:href="#m7177f0d8d4" x="269.956406" y="369.010477" style="fill: #262626; stroke: #262626; stroke-width: 1.25"/>
      </g>
     </g>
     <g id="text_9">
      <!-- 100 -->
      <g style="fill: #262626" transform="translate(150.349844 392.631258)scale(0.66 -0.66)">
       <use xlink:href="#ArialMT-31"/>
       <use xlink:href="#ArialMT-30" x="55.615234"/>
       <use xlink:href="#ArialMT-30" x="111.230469"/>
      </g>
     </g>
    </g>
    <g id="ytick_4">
     <g id="line2d_14">
      <defs>
       <path id="m98571f6ea3" d="M 0 0 
L -4 0 
" style="stroke: #262626"/>
      </defs>
      <g>
       <use xlink:href="#m98571f6ea3" x="269.956406" y="1076.946184" style="fill: #262626; stroke: #262626"/>
      </g>
     </g>
    </g>
    <g id="ytick_5">
     <g id="line2d_15">
      <g>
       <use xlink:href="#m98571f6ea3" x="269.956406" y="1003.571558" style="fill: #262626; stroke: #262626"/>
      </g>
     </g>
    </g>
    <g id="ytick_6">
     <g id="line2d_16">
      <g>
       <use xlink:href="#m98571f6ea3" x="269.956406" y="951.511431" style="fill: #262626; stroke: #262626"/>
      </g>
     </g>
    </g>
    <g id="ytick_7">
     <g id="line2d_17">
      <g>
       <use xlink:href="#m98571f6ea3" x="269.956406" y="911.13046" style="fill: #262626; stroke: #262626"/>
      </g>
     </g>
    </g>
    <g id="ytick_8">
     <g id="line2d_18">
      <g>
       <use xlink:href="#m98571f6ea3" x="269.956406" y="878.136805" style="fill: #262626; stroke: #262626"/>
      </g>
     </g>
    </g>
    <g id="ytick_9">
     <g id="line2d_19">
      <g>
       <use xlink:href="#m98571f6ea3" x="269.956406" y="850.241066" style="fill: #262626; stroke: #262626"/>
      </g>
     </g>
    </g>
    <g id="ytick_10">
     <g id="line2d_20">
      <g>
       <use xlink:href="#m98571f6ea3" x="269.956406" y="826.076678" style="fill: #262626; stroke: #262626"/>
      </g>
     </g>
    </g>
    <g id="ytick_11">
     <g id="line2d_21">
      <g>
       <use xlink:href="#m98571f6ea3" x="269.956406" y="804.762178" style="fill: #262626; stroke: #262626"/>
      </g>
     </g>
    </g>
    <g id="ytick_12">
     <g id="line2d_22">
      <g>
       <use xlink:href="#m98571f6ea3" x="269.956406" y="660.260954" style="fill: #262626; stroke: #262626"/>
      </g>
     </g>
    </g>
    <g id="ytick_13">
     <g id="line2d_23">
      <g>
       <use xlink:href="#m98571f6ea3" x="269.956406" y="586.886327" style="fill: #262626; stroke: #262626"/>
      </g>
     </g>
    </g>
    <g id="ytick_14">
     <g id="line2d_24">
      <g>
       <use xlink:href="#m98571f6ea3" x="269.956406" y="534.826201" style="fill: #262626; stroke: #262626"/>
      </g>
     </g>
    </g>
    <g id="ytick_15">
     <g id="line2d_25">
      <g>
       <use xlink:href="#m98571f6ea3" x="269.956406" y="494.44523" style="fill: #262626; stroke: #262626"/>
      </g>
     </g>
    </g>
    <g id="ytick_16">
     <g id="line2d_26">
      <g>
       <use xlink:href="#m98571f6ea3" x="269.956406" y="461.451574" style="fill: #262626; stroke: #262626"/>
      </g>
     </g>
    </g>
    <g id="ytick_17">
     <g id="line2d_27">
      <g>
       <use xlink:href="#m98571f6ea3" x="269.956406" y="433.555836" style="fill: #262626; stroke: #262626"/>
      </g>
     </g>
    </g>
    <g id="ytick_18">
     <g id="line2d_28">
      <g>
       <use xlink:href="#m98571f6ea3" x="269.956406" y="409.391448" style="fill: #262626; stroke: #262626"/>
      </g>
     </g>
    </g>
    <g id="ytick_19">
     <g id="line2d_29">
      <g>
       <use xlink:href="#m98571f6ea3" x="269.956406" y="388.076948" style="fill: #262626; stroke: #262626"/>
      </g>
     </g>
    </g>
    <g id="ytick_20">
     <g id="line2d_30">
      <g>
       <use xlink:href="#m98571f6ea3" x="269.956406" y="243.575724" style="fill: #262626; stroke: #262626"/>
      </g>
     </g>
    </g>
    <g id="ytick_21">
     <g id="line2d_31">
      <g>
       <use xlink:href="#m98571f6ea3" x="269.956406" y="170.201097" style="fill: #262626; stroke: #262626"/>
      </g>
     </g>
    </g>
    <g id="ytick_22">
     <g id="line2d_32">
      <g>
       <use xlink:href="#m98571f6ea3" x="269.956406" y="118.140971" style="fill: #262626; stroke: #262626"/>
      </g>
     </g>
    </g>
    <g id="ytick_23">
     <g id="line2d_33">
      <g>
       <use xlink:href="#m98571f6ea3" x="269.956406" y="77.76" style="fill: #262626; stroke: #262626"/>
      </g>
     </g>
    </g>
    <g id="text_10">
     <!-- Num Pos Indivs -->
     <g style="fill: #262626" transform="translate(131.443594 902.6525)rotate(-90)scale(0.75 -0.75)">
      <defs>
       <path id="ArialMT-4e" d="M 488 0 
L 488 4581 
L 1109 4581 
L 3516 984 
L 3516 4581 
L 4097 4581 
L 4097 0 
L 3475 0 
L 1069 3600 
L 1069 0 
L 488 0 
z
" transform="scale(0.015625)"/>
       <path id="ArialMT-75" d="M 2597 0 
L 2597 488 
Q 2209 -75 1544 -75 
Q 1250 -75 995 37 
Q 741 150 617 320 
Q 494 491 444 738 
Q 409 903 409 1263 
L 409 3319 
L 972 3319 
L 972 1478 
Q 972 1038 1006 884 
Q 1059 663 1231 536 
Q 1403 409 1656 409 
Q 1909 409 2131 539 
Q 2353 669 2445 892 
Q 2538 1116 2538 1541 
L 2538 3319 
L 3100 3319 
L 3100 0 
L 2597 0 
z
" transform="scale(0.015625)"/>
       <path id="ArialMT-6d" d="M 422 0 
L 422 3319 
L 925 3319 
L 925 2853 
Q 1081 3097 1340 3245 
Q 1600 3394 1931 3394 
Q 2300 3394 2536 3241 
Q 2772 3088 2869 2813 
Q 3263 3394 3894 3394 
Q 4388 3394 4653 3120 
Q 4919 2847 4919 2278 
L 4919 0 
L 4359 0 
L 4359 2091 
Q 4359 2428 4304 2576 
Q 4250 2725 4106 2815 
Q 3963 2906 3769 2906 
Q 3419 2906 3187 2673 
Q 2956 2441 2956 1928 
L 2956 0 
L 2394 0 
L 2394 2156 
Q 2394 2531 2256 2718 
Q 2119 2906 1806 2906 
Q 1569 2906 1367 2781 
Q 1166 2656 1075 2415 
Q 984 2175 984 1722 
L 984 0 
L 422 0 
z
" transform="scale(0.015625)"/>
       <path id="ArialMT-20" transform="scale(0.015625)"/>
       <path id="ArialMT-50" d="M 494 0 
L 494 4581 
L 2222 4581 
Q 2678 4581 2919 4538 
Q 3256 4481 3484 4323 
Q 3713 4166 3852 3881 
Q 3991 3597 3991 3256 
Q 3991 2672 3619 2267 
Q 3247 1863 2275 1863 
L 1100 1863 
L 1100 0 
L 494 0 
z
M 1100 2403 
L 2284 2403 
Q 2872 2403 3119 2622 
Q 3366 2841 3366 3238 
Q 3366 3525 3220 3729 
Q 3075 3934 2838 4000 
Q 2684 4041 2272 4041 
L 1100 4041 
L 1100 2403 
z
" transform="scale(0.015625)"/>
       <path id="ArialMT-6f" d="M 213 1659 
Q 213 2581 725 3025 
Q 1153 3394 1769 3394 
Q 2453 3394 2887 2945 
Q 3322 2497 3322 1706 
Q 3322 1066 3130 698 
Q 2938 331 2570 128 
Q 2203 -75 1769 -75 
Q 1072 -75 642 372 
Q 213 819 213 1659 
z
M 791 1659 
Q 791 1022 1069 705 
Q 1347 388 1769 388 
Q 2188 388 2466 706 
Q 2744 1025 2744 1678 
Q 2744 2294 2464 2611 
Q 2184 2928 1769 2928 
Q 1347 2928 1069 2612 
Q 791 2297 791 1659 
z
" transform="scale(0.015625)"/>
       <path id="ArialMT-73" d="M 197 991 
L 753 1078 
Q 800 744 1014 566 
Q 1228 388 1613 388 
Q 2000 388 2187 545 
Q 2375 703 2375 916 
Q 2375 1106 2209 1216 
Q 2094 1291 1634 1406 
Q 1016 1563 777 1677 
Q 538 1791 414 1992 
Q 291 2194 291 2438 
Q 291 2659 392 2848 
Q 494 3038 669 3163 
Q 800 3259 1026 3326 
Q 1253 3394 1513 3394 
Q 1903 3394 2198 3281 
Q 2494 3169 2634 2976 
Q 2775 2784 2828 2463 
L 2278 2388 
Q 2241 2644 2061 2787 
Q 1881 2931 1553 2931 
Q 1166 2931 1000 2803 
Q 834 2675 834 2503 
Q 834 2394 903 2306 
Q 972 2216 1119 2156 
Q 1203 2125 1616 2013 
Q 2213 1853 2448 1751 
Q 2684 1650 2818 1456 
Q 2953 1263 2953 975 
Q 2953 694 2789 445 
Q 2625 197 2315 61 
Q 2006 -75 1616 -75 
Q 969 -75 630 194 
Q 291 463 197 991 
z
" transform="scale(0.015625)"/>
       <path id="ArialMT-49" d="M 597 0 
L 597 4581 
L 1203 4581 
L 1203 0 
L 597 0 
z
" transform="scale(0.015625)"/>
       <path id="ArialMT-6e" d="M 422 0 
L 422 3319 
L 928 3319 
L 928 2847 
Q 1294 3394 1984 3394 
Q 2284 3394 2536 3286 
Q 2788 3178 2913 3003 
Q 3038 2828 3088 2588 
Q 3119 2431 3119 2041 
L 3119 0 
L 2556 0 
L 2556 2019 
Q 2556 2363 2490 2533 
Q 2425 2703 2258 2804 
Q 2091 2906 1866 2906 
Q 1506 2906 1245 2678 
Q 984 2450 984 1813 
L 984 0 
L 422 0 
z
" transform="scale(0.015625)"/>
       <path id="ArialMT-64" d="M 2575 0 
L 2575 419 
Q 2259 -75 1647 -75 
Q 1250 -75 917 144 
Q 584 363 401 755 
Q 219 1147 219 1656 
Q 219 2153 384 2558 
Q 550 2963 881 3178 
Q 1213 3394 1622 3394 
Q 1922 3394 2156 3267 
Q 2391 3141 2538 2938 
L 2538 4581 
L 3097 4581 
L 3097 0 
L 2575 0 
z
M 797 1656 
Q 797 1019 1065 703 
Q 1334 388 1700 388 
Q 2069 388 2326 689 
Q 2584 991 2584 1609 
Q 2584 2291 2321 2609 
Q 2059 2928 1675 2928 
Q 1300 2928 1048 2622 
Q 797 2316 797 1656 
z
" transform="scale(0.015625)"/>
       <path id="ArialMT-69" d="M 425 3934 
L 425 4581 
L 988 4581 
L 988 3934 
L 425 3934 
z
M 425 0 
L 425 3319 
L 988 3319 
L 988 0 
L 425 0 
z
" transform="scale(0.015625)"/>
       <path id="ArialMT-76" d="M 1344 0 
L 81 3319 
L 675 3319 
L 1388 1331 
Q 1503 1009 1600 663 
Q 1675 925 1809 1294 
L 2547 3319 
L 3125 3319 
L 1869 0 
L 1344 0 
z
" transform="scale(0.015625)"/>
      </defs>
      <use xlink:href="#ArialMT-4e"/>
      <use xlink:href="#ArialMT-75" x="72.216797"/>
      <use xlink:href="#ArialMT-6d" x="127.832031"/>
      <use xlink:href="#ArialMT-20" x="211.132812"/>
      <use xlink:href="#ArialMT-50" x="238.916016"/>
      <use xlink:href="#ArialMT-6f" x="305.615234"/>
      <use xlink:href="#ArialMT-73" x="361.230469"/>
      <use xlink:href="#ArialMT-20" x="411.230469"/>
      <use xlink:href="#ArialMT-49" x="439.013672"/>
      <use xlink:href="#ArialMT-6e" x="466.796875"/>
      <use xlink:href="#ArialMT-64" x="522.412109"/>
      <use xlink:href="#ArialMT-69" x="578.027344"/>
      <use xlink:href="#ArialMT-76" x="600.244141"/>
      <use xlink:href="#ArialMT-73" x="650.244141"/>
     </g>
    </g>
   </g>
   <g id="PathCollection_1">
    <defs>
     <path id="mca035f8d0e" d="M -14.142136 14.142136 
L 14.142136 14.142136 
L 14.142136 -14.142136 
L -14.142136 -14.142136 
z
" style="stroke: #1a1a1a"/>
    </defs>
    <g clip-path="url(#p045c864c50)"/>
   </g>
   <g id="PathCollection_2">
    <g clip-path="url(#p045c864c50)">
     <use xlink:href="#mca035f8d0e" x="594.190669" y="918.517776" style="fill: #1a1a1a; stroke: #1a1a1a"/>
    </g>
   </g>
   <g id="PathCollection_3">
    <g clip-path="url(#p045c864c50)">
     <use xlink:href="#mca035f8d0e" x="642.498299" y="911.13046" style="fill: #1a1a1a; stroke: #1a1a1a"/>
    </g>
   </g>
   <g id="PathCollection_4">
    <g clip-path="url(#p045c864c50)">
     <use xlink:href="#mca035f8d0e" x="717.006678" y="911.13046" style="fill: #1a1a1a; stroke: #1a1a1a"/>
    </g>
   </g>
   <g id="PathCollection_5">
    <g clip-path="url(#p045c864c50)">
     <use xlink:href="#mca035f8d0e" x="767.770628" y="951.511431" style="fill: #1a1a1a; stroke: #1a1a1a"/>
    </g>
   </g>
   <g id="PathCollection_6">
    <g clip-path="url(#p045c864c50)">
     <use xlink:href="#mca035f8d0e" x="792.33383" y="911.13046" style="fill: #1a1a1a; stroke: #1a1a1a"/>
    </g>
   </g>
   <g id="PathCollection_7">
    <g clip-path="url(#p045c864c50)">
     <use xlink:href="#mca035f8d0e" x="867.660982" y="911.13046" style="fill: #1a1a1a; stroke: #1a1a1a"/>
    </g>
   </g>
   <g id="line2d_34">
    <path d="M 0 0 
" clip-path="url(#p045c864c50)" style="fill: none; stroke: #1a1a1a; stroke-width: 6; stroke-linecap: round"/>
   </g>
   <g id="line2d_35">
    <path d="M -1 452.847379 
L 19.411749 468.211631 
L 44.793724 470.733819 
L 69.356925 468.211631 
L 94.738901 471.369897 
L 119.302102 465.724112 
L 144.684077 473.291658 
L 170.066053 460.849364 
L 194.629254 466.963597 
L 220.011229 464.493059 
L 244.574431 468.83889 
L 269.956406 463.270324 
L 295.338381 459.650922 
L 318.264036 463.880659 
L 343.646011 475.234046 
L 368.209213 474.584264 
L 393.591188 483.90065 
L 418.15439 514.317778 
L 443.536365 542.213517 
L 468.91834 564.236292 
L 493.481542 568.545165 
L 518.863517 583.302763 
L 543.426719 577.48348 
L 568.808694 590.542292 
L 594.190669 918.517776 
L 594.190669 918.517776 
" clip-path="url(#p045c864c50)" style="fill: none; stroke: #1a1a1a; stroke-width: 6; stroke-linecap: round"/>
   </g>
   <g id="line2d_36">
    <path d="M -1 358.903853 
L 19.411749 364.718637 
L 44.793724 367.030741 
L 69.356925 366.316173 
L 94.738901 378.102333 
L 119.302102 379.24768 
L 144.684077 379.439277 
L 170.066053 379.823083 
L 194.629254 378.292722 
L 220.011229 381.366496 
L 244.574431 374.149762 
L 269.956406 375.645342 
L 295.338381 380.786172 
L 318.264036 387.875988 
L 343.646011 399.060395 
L 368.209213 403.166025 
L 393.591188 390.709936 
L 418.15439 393.174865 
L 443.536365 397.995271 
L 468.91834 397.995271 
L 493.481542 394.004026 
L 518.863517 412.35627 
L 543.426719 449.772419 
L 568.808694 445.856506 
L 594.190669 692.893043 
L 617.116324 817.24741 
L 642.498299 911.13046 
L 642.498299 911.13046 
" clip-path="url(#p045c864c50)" style="fill: none; stroke: #1a1a1a; stroke-width: 6; stroke-linecap: round"/>
   </g>
   <g id="line2d_37">
    <path d="M -1 298.512081 
L 19.411749 310.201153 
L 44.793724 314.434424 
L 69.356925 313.899818 
L 94.738901 320.698668 
L 119.302102 326.042207 
L 144.684077 329.20952 
L 170.066053 336.621043 
L 220.011229 327.475026 
L 244.574431 335.114255 
L 269.956406 334.814398 
L 295.338381 329.791398 
L 318.264036 320.698668 
L 343.646011 320.14526 
L 368.209213 319.318309 
L 393.591188 314.970615 
L 418.15439 317.131406 
L 443.536365 322.089636 
L 468.91834 322.089636 
L 493.481542 326.613974 
L 518.863517 321.531965 
L 543.426719 325.472241 
L 568.808694 321.810586 
L 594.190669 589.315412 
L 617.116324 689.671045 
L 642.498299 804.762178 
L 667.061501 826.076678 
L 692.443476 850.241066 
L 717.006678 911.13046 
L 717.006678 911.13046 
" clip-path="url(#p045c864c50)" style="fill: none; stroke: #1a1a1a; stroke-width: 6; stroke-linecap: round"/>
   </g>
   <g id="line2d_38">
    <path d="M -1 282.766815 
L 19.411749 278.937338 
L 44.793724 285.09127 
L 69.356925 285.661236 
L 94.738901 293.835198 
L 119.302102 291.461864 
L 144.684077 298.064935 
L 170.066053 296.240072 
L 220.011229 301.147873 
L 244.574431 292.052286 
L 269.956406 288.538309 
L 295.338381 287.959224 
L 318.264036 289.119254 
L 343.646011 289.70207 
L 368.209213 286.233003 
L 393.591188 286.233003 
L 418.15439 281.708665 
L 443.536365 281.150994 
L 468.91834 276.750434 
L 493.481542 271.396077 
L 518.863517 271.396077 
L 543.426719 272.454349 
L 568.808694 277.294688 
L 594.190669 523.855321 
L 617.116324 647.173511 
L 642.498299 738.217195 
L 667.061501 768.447987 
L 692.443476 804.762178 
L 717.006678 850.241066 
L 742.388653 878.136805 
L 767.770628 951.511431 
L 767.770628 951.511431 
" clip-path="url(#p045c864c50)" style="fill: none; stroke: #1a1a1a; stroke-width: 6; stroke-linecap: round"/>
   </g>
   <g id="line2d_39">
    <path d="M -1 258.581148 
L 19.411749 253.239347 
L 44.793724 254.38833 
L 69.356925 258.271828 
L 94.738901 263.448272 
L 119.302102 257.879707 
L 144.684077 256.903104 
L 170.066053 253.239347 
L 194.629254 249.274404 
L 220.011229 252.097614 
L 244.574431 256.513933 
L 269.956406 256.903104 
L 295.338381 260.245284 
L 318.264036 261.040732 
L 343.646011 258.075661 
L 368.209213 252.097614 
L 393.591188 243.756779 
L 418.15439 238.226642 
L 443.536365 239.283884 
L 468.91834 239.460693 
L 493.481542 245.394474 
L 518.863517 243.033645 
L 543.426719 246.862751 
L 568.808694 246.862751 
L 594.190669 479.18251 
L 617.116324 596.80465 
L 642.498299 700.641925 
L 667.061501 732.733015 
L 692.443476 752.702052 
L 717.006678 804.762178 
L 742.388653 850.241066 
L 767.770628 878.136805 
L 792.33383 911.13046 
L 792.33383 911.13046 
" clip-path="url(#p045c864c50)" style="fill: none; stroke: #1a1a1a; stroke-width: 6; stroke-linecap: round"/>
   </g>
   <g id="line2d_40">
    <path d="M -1 233.812389 
L 19.411749 229.146558 
L 44.793724 231.078428 
L 69.356925 223.148107 
L 94.738901 219.626359 
L 119.302102 219.309573 
L 144.684077 220.2616 
L 170.066053 222.905798 
L 194.629254 226.081402 
L 220.011229 231.078428 
L 244.574431 231.840027 
L 269.956406 236.304263 
L 295.338381 236.304263 
L 343.646011 230.067923 
L 368.209213 227.566075 
L 393.591188 226.904716 
L 418.15439 221.618937 
L 443.536365 221.218662 
L 468.91834 219.388717 
L 493.481542 218.677659 
L 518.863517 218.441259 
L 543.426719 217.029308 
L 568.808694 219.705642 
L 594.190669 460.549009 
L 617.116324 569.638607 
L 642.498299 651.431686 
L 667.061501 700.641925 
L 692.443476 724.806313 
L 717.006678 768.447987 
L 742.388653 804.762178 
L 767.770628 850.241066 
L 792.33383 850.241066 
L 817.715805 878.136805 
L 842.279007 878.136805 
L 867.660982 911.13046 
L 867.660982 911.13046 
" clip-path="url(#p045c864c50)" style="fill: none; stroke: #1a1a1a; stroke-width: 6; stroke-linecap: round"/>
   </g>
   <g id="line2d_41">
    <path d="M -1 198.860886 
L 19.411749 204.648288 
L 44.793724 201.465784 
L 69.356925 203.629589 
L 94.738901 198.620378 
L 119.302102 199.185891 
L 144.684077 200.893112 
L 170.066053 203.629589 
L 194.629254 203.05004 
L 220.011229 205.086635 
L 244.574431 209.679502 
L 269.956406 207.442588 
L 295.338381 203.774767 
L 318.264036 198.902913 
L 343.646011 202.76096 
L 368.209213 205.232986 
L 393.591188 206.408082 
L 418.15439 195.81902 
L 443.536365 199.469311 
L 468.91834 198.056626 
L 493.481542 198.056626 
L 518.863517 197.775407 
L 543.426719 194.296559 
L 568.808694 189.804554 
L 594.190669 433.039533 
L 617.116324 552.890098 
L 642.498299 641.375538 
L 667.061501 667.64827 
L 692.443476 698.393895 
L 717.006678 735.454331 
L 742.388653 768.447987 
L 767.770628 785.695707 
L 792.33383 785.695707 
L 817.715805 804.762178 
L 842.279007 821.608202 
L 867.660982 804.762178 
L 893.042957 804.762178 
L 915.968612 821.608202 
L 941.350587 804.762178 
L 1015.858966 804.762178 
L 1041.240941 821.608202 
L 1066.622916 785.695707 
L 1091.186118 796.892934 
L 1116.568093 785.695707 
L 1141.131294 782.112143 
L 1166.51327 782.112143 
L 1191.895245 785.695707 
L 1215.639673 785.695707 
L 1241.021648 804.762178 
L 1265.58485 817.24741 
L 1290.966825 821.608202 
L 1315.530027 821.608202 
L 1340.912002 840.184918 
L 1366.293977 845.143149 
L 1390.857179 878.136805 
L 1440.802356 878.136805 
L 1466.184331 850.241066 
L 1491.566306 872.203024 
L 1539.873936 872.203024 
L 1564.437138 826.076678 
L 1589.819113 804.762178 
L 1614.382315 796.892934 
L 1639.76429 821.608202 
L 1689.709466 821.608202 
L 1715.091442 826.076678 
L 1739.654643 804.762178 
L 1765.036618 804.762178 
L 1790.418594 826.076678 
L 1813.344249 821.608202 
L 1838.726224 821.608202 
L 1863.289425 804.762178 
L 1888.671401 826.076678 
L 1938.616577 826.076678 
L 1963.998553 850.241066 
L 1988.561754 826.076678 
L 2013.943729 826.076678 
L 2038.506931 821.608202 
L 2063.888906 817.24741 
L 2089.270881 821.608202 
L 2112.196536 785.695707 
L 2137.578511 782.112143 
L 2161 769.083105 
L 2161 769.083105 
" clip-path="url(#p045c864c50)" style="fill: none; stroke: #1a1a1a; stroke-width: 6; stroke-linecap: round"/>
   </g>
   <g id="line2d_42">
    <path d="M -1 166.758335 
L 19.411749 167.982858 
L 44.793724 163.510022 
L 69.356925 168.639499 
L 94.738901 174.350152 
L 119.302102 170.020224 
L 144.684077 177.651258 
L 170.066053 173.242582 
L 194.629254 169.298531 
L 220.011229 167.091261 
L 244.574431 163.684501 
L 269.956406 165.203744 
L 295.338381 175.899777 
L 318.264036 168.818997 
L 343.646011 164.79346 
L 368.209213 160.683752 
L 393.591188 163.626323 
L 418.15439 162.698002 
L 443.536365 164.55943 
L 468.91834 170.201097 
L 493.481542 169.598887 
L 518.863517 173.61102 
L 543.426719 167.209887 
L 568.808694 164.617909 
L 594.190669 400.346875 
L 617.116324 529.477119 
L 642.498299 605.283799 
L 667.061501 634.969061 
L 692.443476 658.460302 
L 717.006678 679.327425 
L 742.388653 724.806313 
L 767.770628 766.810291 
L 792.33383 738.217195 
L 817.715805 736.83049 
L 842.279007 738.217195 
L 867.660982 724.806313 
L 893.042957 712.321081 
L 915.968612 699.51442 
L 941.350587 718.456044 
L 965.913789 711.118657 
L 991.295764 712.321081 
L 1015.858966 711.118657 
L 1041.240941 712.321081 
L 1066.622916 723.518307 
L 1091.186118 724.806313 
L 1116.568093 723.518307 
L 1166.51327 698.393895 
L 1191.895245 687.554482 
L 1215.639673 689.671045 
L 1241.021648 699.51442 
L 1265.58485 711.118657 
L 1290.966825 736.83049 
L 1315.530027 752.702052 
L 1340.912002 723.518307 
L 1366.293977 746.768271 
L 1390.857179 748.233575 
L 1416.239154 734.088558 
L 1440.802356 700.641925 
L 1466.184331 688.609669 
L 1491.566306 678.324851 
L 1514.491961 649.716374 
L 1539.873936 642.192533 
L 1564.437138 648.864777 
L 1589.819113 619.157571 
L 1614.382315 619.879983 
L 1639.76429 627.267299 
L 1665.146265 632.623921 
L 1689.709466 639.752531 
L 1715.091442 632.623921 
L 1739.654643 619.879983 
L 1765.036618 649.716374 
L 1790.418594 651.431686 
L 1813.344249 679.327425 
L 1838.726224 688.609669 
L 1863.289425 696.173449 
L 1888.671401 684.425342 
L 1913.234602 685.462388 
L 1938.616577 679.327425 
L 1963.998553 687.554482 
L 1988.561754 711.118657 
L 2013.943729 720.969475 
L 2038.506931 707.558593 
L 2063.888906 707.558593 
L 2089.270881 699.51442 
L 2112.196536 688.609669 
L 2137.578511 666.708194 
L 2161 665.816447 
L 2161 665.816447 
" clip-path="url(#p045c864c50)" style="fill: none; stroke: #1a1a1a; stroke-width: 6; stroke-linecap: round"/>
   </g>
   <g id="patch_3">
    <path d="M 269.956406 1202.380938 
L 269.956406 77.76 
" style="fill: none; stroke: #cccccc; stroke-width: 1.25; stroke-linejoin: miter; stroke-linecap: square"/>
   </g>
   <g id="patch_4">
    <path d="M 2063.888906 1202.380938 
L 2063.888906 77.76 
" style="fill: none; stroke: #cccccc; stroke-width: 1.25; stroke-linejoin: miter; stroke-linecap: square"/>
   </g>
   <g id="patch_5">
    <path d="M 269.956406 1202.380938 
L 2063.888906 1202.380938 
" style="fill: none; stroke: #cccccc; stroke-width: 1.25; stroke-linejoin: miter; stroke-linecap: square"/>
   </g>
   <g id="patch_6">
    <path d="M 269.956406 77.76 
L 2063.888906 77.76 
" style="fill: none; stroke: #cccccc; stroke-width: 1.25; stroke-linejoin: miter; stroke-linecap: square"/>
   </g>
  </g>
 </g>
 <defs>
  <clipPath id="p045c864c50">
   <rect x="269.956406" y="77.76" width="1793.9325" height="1124.620938"/>
  </clipPath>
 </defs>
</svg>
